<!-- icon666.com - MILLIONS vector ICONS FREE --><svg enable-background="new 0 0 64 64" viewBox="0 0 64 64" xmlns="http://www.w3.org/2000/svg"><g id="Icons"><g><g><circle cx="32" cy="30" fill="#f0f0f0" r="26"></circle></g><g><circle cx="32" cy="47" fill="#d2d2d2" r="12"></circle></g><g><path d="m52 30h-20c-.552 0-1-.448-1-1s.448-1 1-1h20c.553 0 1 .448 1 1s-.447 1-1 1z" fill="#d2d2d2"></path></g><g><circle cx="32" cy="29" fill="#d2d2d2" r="14"></circle></g><g><g><path d="m10 30c0 1.105.895 2 2 2s2-.895 2-2c0-6.1 3.042-11.482 7.684-14.737l-2.298-3.283c-5.673 3.979-9.386 10.564-9.386 18.02z" fill="#c80a50"></path></g><g><path d="m32 8c-4.694 0-9.042 1.475-12.614 3.98l2.298 3.283c2.923-2.05 6.475-3.263 10.316-3.263s7.393 1.213 10.316 3.263l2.298-3.283c-3.572-2.505-7.92-3.98-12.614-3.98z" fill="#fab400"></path></g><g><path d="m44.614 11.98-2.298 3.283c4.642 3.255 7.684 8.637 7.684 14.737 0 1.105.895 2 2 2s2-.895 2-2c0-7.456-3.713-14.041-9.386-18.02z" fill="#00a0c8"></path></g></g><g><g><path d="m52 31h-20c-.552 0-1-.448-1-1s.448-1 1-1h20c.553 0 1 .448 1 1s-.447 1-1 1z" fill="#0a5078"></path></g><g><circle cx="32" cy="30" fill="#0a5078" r="14"></circle></g><g><circle cx="32" cy="30" fill="#00a0c8" r="12"></circle></g><g><ellipse cx="32" cy="38.5" fill="#0082aa" rx="8.469" ry="3.5"></ellipse></g></g><g fill="#0a5078"><path d="m27.5 23h-1c-1.93 0-3.5 1.57-3.5 3.5s1.57 3.5 3.5 3.5h2.5v3.5c0 .827-.673 1.5-1.5 1.5h-1c-.827 0-1.5-.673-1.5-1.5v-1.5c0-.552-.448-1-1-1s-1 .448-1 1v1.5c0 1.93 1.57 3.5 3.5 3.5h1c1.93 0 3.5-1.57 3.5-3.5v-7c0-1.93-1.57-3.5-3.5-3.5zm-2.5 3.5c0-.827.673-1.5 1.5-1.5h1c.827 0 1.5.673 1.5 1.5v1.5h-2.5c-.827 0-1.5-.673-1.5-1.5z"></path><path d="m37.5 23h-1c-1.93 0-3.5 1.57-3.5 3.5v7c0 1.93 1.57 3.5 3.5 3.5h1c1.93 0 3.5-1.57 3.5-3.5v-7c0-1.93-1.57-3.5-3.5-3.5zm1.5 10.5c0 .827-.673 1.5-1.5 1.5h-1c-.827 0-1.5-.673-1.5-1.5v-7c0-.827.673-1.5 1.5-1.5h1c.827 0 1.5.673 1.5 1.5z"></path></g><g><g><circle cx="32" cy="48" fill="#fab400" r="12"></circle></g><path d="m35.342 48.553-5.789-2.895c-.341-.17-.553-.513-.553-.894v-.764c0-.551.449-1 1-1h4c.552 0 1 .449 1 1 0 .552.447 1 1 1s1-.448 1-1c0-1.654-1.346-3-3-3h-1v-1c0-.552-.448-1-1-1s-1 .448-1 1v1h-1c-1.654 0-3 1.346-3 3v.764c0 1.143.635 2.171 1.658 2.683l5.789 2.895c.341.17.553.513.553.894v.764c0 .551-.448 1-1 1h-4c-.551 0-1-.449-1-1 0-.552-.448-1-1-1s-1 .448-1 1c0 1.654 1.346 3 3 3h1v1c0 .552.448 1 1 1s1-.448 1-1v-1h1c1.654 0 3-1.346 3-3v-.764c0-1.144-.636-2.172-1.658-2.683z" fill="#f0f0f0"></path></g></g></g></svg>